<svg width="25" height="24" viewBox="0 0 25 24" fill="none" xmlns="http://www.w3.org/2000/svg">
<g clip-path="url(#clip0_2_343)">
<path fill-rule="evenodd" clip-rule="evenodd" d="M21.5756 5.51906C21.4331 5.34851 21.2223 5.24996 21 5.25H5.87625L5.41781 2.73187C5.28823 2.01862 4.66711 1.5001 3.94219 1.5H2.25C1.83579 1.5 1.5 1.83579 1.5 2.25C1.5 2.66421 1.83579 3 2.25 3H3.9375L6.33375 16.1522C6.40434 16.5422 6.57671 16.9067 6.83344 17.2087C5.84996 18.1273 5.72046 19.6409 6.5336 20.7132C7.34675 21.7855 8.83911 22.0692 9.98899 21.37C11.1389 20.6709 11.5738 19.2154 10.9959 18H15.2541C15.0863 18.3513 14.9995 18.7357 15 19.125C15 20.5747 16.1753 21.75 17.625 21.75C19.0747 21.75 20.25 20.5747 20.25 19.125C20.25 17.6753 19.0747 16.5 17.625 16.5H8.54719C8.18472 16.4999 7.87417 16.2407 7.80937 15.8841L7.51219 14.25H18.3872C19.4746 14.2498 20.4063 13.4721 20.6006 12.4022L21.7406 6.13406C21.7797 5.91473 21.7192 5.68938 21.5756 5.51906ZM17.625 18C18.2463 18 18.75 18.5037 18.75 19.125C18.75 19.7463 18.2463 20.25 17.625 20.25C17.0037 20.25 16.5 19.7463 16.5 19.125C16.5 18.5037 17.0037 18 17.625 18ZM8.625 18C9.24632 18 9.75 18.5037 9.75 19.125C9.75 19.7463 9.24632 20.25 8.625 20.25C8.00368 20.25 7.5 19.7463 7.5 19.125C7.5 18.5037 8.00368 18 8.625 18Z" fill="#121717"/>
</g>
<defs>
<clipPath id="clip0_2_343">
<rect width="24" height="24" fill="white" transform="translate(0.75)"/>
</clipPath>
</defs>
</svg>
