<?xml version="1.0" standalone="no"?>
<!DOCTYPE svg PUBLIC "-//W3C//DTD SVG 20010904//EN"
 "http://www.w3.org/TR/2001/REC-SVG-20010904/DTD/svg10.dtd">
<svg version="1.0" xmlns="http://www.w3.org/2000/svg"
 width="499.000000pt" height="500.000000pt" viewBox="0 0 499.000000 500.000000"
 preserveAspectRatio="xMidYMid meet">

<g transform="translate(0.000000,500.000000) scale(0.100000,-0.100000)"
fill="#000000" stroke="none">
<path d="M2215 4981 c-67 -6 -154 -21 -272 -47 -13 -2 -23 -9 -23 -14 0 -6
103 -9 273 -8 312 1 380 -5 662 -64 95 -19 310 -83 378 -113 18 -7 73 -30 122
-52 50 -21 121 -55 159 -75 38 -21 71 -38 73 -38 10 0 246 -160 305 -207 37
-29 84 -63 105 -75 43 -25 122 -98 123 -113 0 -5 21 -25 45 -44 27 -19 45 -41
45 -53 0 -11 6 -26 13 -33 17 -20 27 -33 67 -90 19 -28 38 -51 42 -53 4 -2 8
-8 8 -13 0 -5 16 -31 35 -58 19 -26 35 -51 35 -55 0 -3 15 -29 33 -58 70 -110
165 -328 204 -468 16 -59 52 -210 53 -222 0 -17 -25 -5 -101 47 -153 104 -332
179 -559 235 -155 38 -210 44 -380 46 -80 1 -164 5 -188 9 -53 9 -215 -17
-308 -49 -79 -28 -75 -29 116 -46 400 -35 679 -90 875 -172 104 -43 292 -141
350 -181 115 -81 261 -240 321 -352 6 -11 15 -29 21 -40 21 -38 53 -115 53
-127 0 -12 15 -62 48 -156 8 -23 18 -42 22 -42 10 0 22 171 20 280 -4 225 -20
381 -45 463 -15 45 -42 150 -61 232 -45 193 -81 298 -146 429 -17 33 -92 166
-141 248 -35 59 -169 238 -179 238 -4 0 -8 5 -8 10 0 6 -8 18 -17 28 -10 10
-39 41 -64 68 -163 174 -412 371 -604 479 -191 107 -441 206 -630 249 -226 52
-275 57 -540 61 -143 2 -296 0 -340 -4z"/>
<path d="M1245 4943 c-64 -15 -247 -100 -280 -130 -11 -10 -42 -36 -69 -57
-59 -48 -83 -71 -128 -127 -81 -100 -146 -268 -154 -396 -4 -75 -16 -99 -107
-223 -114 -154 -117 -158 -117 -166 0 -4 -6 -15 -14 -23 -30 -36 -158 -282
-191 -369 -14 -34 -30 -77 -38 -95 -37 -86 -62 -181 -101 -372 -40 -197 -55
-495 -37 -705 12 -142 44 -337 66 -405 7 -22 23 -74 35 -115 53 -175 109 -305
198 -460 32 -56 31 -55 38 -47 3 3 0 22 -6 43 -7 20 -18 62 -25 93 -7 31 -26
110 -43 176 -95 370 -126 640 -110 948 18 333 94 618 250 932 72 147 76 154
166 294 l35 54 18 -44 c10 -24 18 -50 18 -58 2 -37 71 -151 126 -207 84 -86
134 -106 260 -108 95 -1 102 0 137 27 64 49 78 102 103 397 18 222 40 312 108
445 34 66 61 99 180 223 26 27 22 27 -35 2 -45 -19 -139 -97 -204 -168 -55
-60 -128 -213 -148 -313 -3 -13 -12 -49 -20 -79 -28 -105 -56 -225 -56 -239 0
-19 -39 -101 -58 -123 -9 -11 -29 -18 -52 -18 -60 0 -126 59 -178 161 -101
198 -111 405 -30 644 93 274 289 443 585 506 184 40 360 22 477 -46 47 -27
156 -139 156 -160 0 -6 12 -22 26 -36 23 -21 35 -24 132 -26 129 -3 276 -42
354 -95 14 -10 31 -18 36 -18 6 0 44 -33 84 -72 125 -124 165 -239 154 -438
-7 -118 -22 -181 -101 -415 -56 -168 -70 -238 -57 -294 l8 -34 28 69 c16 38
36 87 46 109 9 22 27 65 40 95 12 30 26 64 31 75 43 102 60 137 66 131 19 -19
35 -325 20 -379 -9 -32 -83 -117 -102 -117 -19 0 -36 -25 -30 -43 9 -23 59
-28 117 -11 74 22 132 85 149 161 18 78 -4 244 -70 523 -35 148 -42 190 -47
268 -10 167 -52 271 -149 368 -62 63 -147 116 -256 160 -83 34 -191 64 -230
64 -43 0 -106 20 -123 39 -9 9 -31 35 -51 58 -43 49 -150 122 -215 145 -104
38 -490 51 -615 21z"/>
<path d="M1815 4065 c-5 -2 -22 -6 -37 -9 -16 -4 -28 -12 -28 -19 0 -12 101
-97 115 -97 4 0 18 -9 32 -20 36 -28 79 -25 138 10 28 16 61 35 75 41 24 11
22 12 -40 34 -36 13 -89 32 -118 44 -46 19 -108 26 -137 16z"/>
<path d="M2500 3836 c0 -30 32 -102 57 -128 40 -42 103 -34 103 12 0 19 -77
100 -95 100 -7 0 -18 7 -25 15 -16 19 -40 20 -40 1z"/>
<path d="M2209 3267 c-91 -42 -85 -139 18 -275 22 -29 55 -64 74 -77 87 -65
229 2 265 123 14 51 14 59 -1 98 -20 53 -81 107 -143 128 -53 19 -175 20 -213
3z"/>
<path d="M1312 3168 c-15 -15 -15 -58 -1 -118 6 -25 12 -49 13 -55 14 -62 107
-182 183 -234 38 -26 145 -80 188 -94 16 -5 98 -11 180 -12 203 -3 358 -19
386 -39 28 -19 53 -20 67 -3 17 20 -5 80 -44 126 -47 54 -85 62 -215 43 -57
-8 -131 -15 -164 -16 -86 -1 -218 21 -228 39 -4 8 -13 15 -19 15 -28 0 -121
54 -171 100 -53 49 -111 146 -134 224 -9 33 -23 42 -41 24z"/>
<path d="M3332 2671 c-6 -16 -8 -32 -5 -35 4 -3 7 -84 7 -180 1 -194 8 -218
46 -164 12 18 49 53 81 78 56 43 58 47 59 92 0 26 5 50 11 54 13 8 156 -30
222 -59 l49 -21 -30 -11 c-41 -14 -47 -22 -32 -40 12 -14 37 -15 210 -9 109 4
208 4 221 1 29 -7 53 -56 54 -110 1 -21 6 -41 11 -45 17 -12 104 -128 104
-139 0 -16 32 -25 43 -14 6 6 12 45 15 88 4 83 -16 179 -44 207 -8 8 -14 18
-14 22 0 9 -49 54 -58 54 -4 0 -18 -8 -32 -17 -29 -20 -78 -19 -207 4 -62 11
-93 21 -93 30 0 22 -39 53 -73 59 -18 4 -59 16 -92 27 -45 16 -84 22 -157 22
-89 0 -98 2 -107 21 -11 25 -139 114 -163 114 -9 0 -21 -13 -26 -29z"/>
<path d="M1945 2473 c-11 -3 -31 -10 -45 -16 -14 -6 -45 -12 -70 -13 -42 -2
-101 -27 -196 -85 -17 -11 -52 -22 -78 -25 -44 -6 -59 -18 -34 -26 15 -5 -140
-88 -163 -88 -39 0 -269 -227 -324 -321 -68 -116 -115 -290 -115 -423 0 -98
34 -236 82 -332 58 -115 80 -138 115 -116 10 6 10 22 3 67 -25 154 -3 443 44
581 37 107 103 236 150 291 61 71 156 157 211 190 39 24 128 63 142 63 7 0 16
6 19 14 3 8 24 18 47 22 23 3 51 13 62 20 11 8 31 14 46 14 14 0 37 8 50 19
16 12 50 21 96 26 42 4 77 13 84 21 16 20 209 19 342 -2 56 -8 117 -17 136
-18 18 -2 37 -9 41 -15 4 -7 47 -26 96 -42 48 -17 93 -34 99 -38 5 -5 27 -11
48 -15 21 -4 54 -16 73 -26 19 -11 53 -23 77 -27 39 -6 41 -5 28 11 -15 18
-88 58 -128 70 -12 4 -36 20 -52 35 -32 30 -196 115 -244 126 -15 4 -30 11
-33 16 -3 5 -22 9 -42 9 -20 0 -48 6 -62 13 -21 11 -27 11 -37 -2 -17 -23
-309 -17 -335 6 -18 16 -98 26 -133 16z"/>
<path d="M990 2088 c-30 -12 -78 -36 -107 -55 -28 -18 -54 -33 -57 -33 -15 0
-104 -69 -159 -123 -101 -99 -180 -230 -221 -368 -21 -73 -22 -245 0 -314 8
-27 17 -57 19 -66 5 -26 75 -167 99 -204 70 -103 218 -256 349 -363 76 -61
233 -172 244 -172 3 0 14 -6 22 -14 19 -17 289 -155 341 -175 19 -7 58 -22 85
-33 126 -49 265 -90 315 -93 30 -1 116 -14 191 -28 179 -35 513 -53 615 -33
131 25 239 91 302 186 32 49 36 62 40 136 4 71 1 88 -19 129 -94 188 -414 290
-824 264 -77 -5 -165 -15 -195 -22 l-55 -13 145 -6 c190 -8 363 -41 466 -89
23 -10 45 -19 50 -19 34 -2 104 -102 104 -150 0 -65 -73 -121 -201 -155 -65
-18 -320 -20 -418 -4 -403 65 -569 112 -841 237 -48 22 -214 124 -218 134 -2
4 -8 8 -14 8 -6 0 -45 29 -87 65 -171 145 -326 361 -357 500 -16 74 -18 215
-3 287 13 61 69 198 81 198 4 0 8 4 8 9 0 47 204 258 310 320 41 24 89 52 105
62 l30 19 -45 -1 c-25 0 -70 -9 -100 -21z"/>
<path d="M3396 2039 c-23 -18 -26 -27 -26 -83 0 -87 21 -106 113 -106 57 0 68
3 78 21 26 49 -17 144 -78 173 -44 21 -55 20 -87 -5z"/>
<path d="M4340 2033 c-1 -5 -1 -76 0 -158 1 -119 -3 -169 -20 -238 -25 -108
-25 -118 0 -88 15 18 20 38 20 86 0 48 5 68 20 86 17 21 21 22 30 9 9 -13 10
-13 11 0 3 60 -5 175 -15 228 -8 34 -11 62 -7 62 8 0 -22 20 -31 20 -5 0 -8
-3 -8 -7z"/>
<path d="M3175 1950 c-26 -50 -47 -178 -40 -245 16 -157 70 -243 193 -306 25
-13 74 -50 109 -81 116 -105 209 -131 314 -87 31 13 56 29 55 34 0 6 -23 10
-51 11 -131 2 -191 24 -274 103 -29 28 -77 62 -107 76 -71 34 -129 93 -162
164 -31 67 -41 198 -23 292 14 71 9 84 -14 39z"/>
<path d="M3946 1970 c-44 -14 -115 -89 -130 -137 -7 -21 -4 -23 24 -23 17 0
48 -9 70 -20 81 -41 171 -14 221 67 20 32 20 35 4 59 -29 45 -128 73 -189 54z"/>
<path d="M2579 1776 c-44 -94 -79 -227 -86 -327 -11 -165 45 -316 161 -432 26
-26 142 -107 153 -107 3 0 19 -6 36 -14 131 -57 405 -118 452 -100 42 17 0 69
-65 80 -48 9 -185 75 -281 135 -43 27 -83 49 -87 49 -5 0 -17 9 -27 20 -10 11
-23 20 -30 20 -7 0 -20 9 -30 20 -10 11 -22 20 -27 20 -22 0 -75 81 -89 135
-4 17 -19 63 -33 103 -23 65 -26 90 -26 200 0 70 5 156 10 191 6 35 8 66 6 69
-3 3 -20 -25 -37 -62z"/>
<path d="M4683 1812 c-18 -12 -32 -56 -39 -129 -4 -38 -15 -86 -24 -108 -9
-22 -27 -67 -39 -100 -52 -137 -60 -155 -129 -277 -94 -165 -214 -305 -377
-436 -38 -31 -72 -59 -75 -62 -3 -3 -12 -9 -22 -15 -9 -5 -47 -31 -85 -56
-141 -94 -123 -84 -386 -216 -177 -90 -218 -114 -273 -167 -47 -45 -64 -68
-64 -88 0 -35 12 -38 95 -22 207 38 538 208 778 400 103 82 260 233 352 339
199 229 314 518 318 801 2 120 -5 151 -30 136z"/>
<path d="M3563 1754 c-3 -9 2 -31 11 -49 16 -29 16 -35 2 -68 l-15 -36 37 -23
c20 -12 61 -44 90 -72 28 -27 52 -46 52 -42 0 20 -37 74 -76 112 -24 23 -44
50 -44 61 0 24 27 63 44 63 8 0 19 7 26 15 10 13 10 19 -5 35 -24 26 -112 29
-122 4z"/>
</g>
</svg>
